<?xml version="1.0" encoding="iso-8859-1"?>
<!-- Uploaded to: SVG Repo, www.svgrepo.com, Generator: SVG Repo Mixer Tools -->
<svg fill="#000000" height="800px" width="800px" version="1.1" id="Layer_1" xmlns="http://www.w3.org/2000/svg" xmlns:xlink="http://www.w3.org/1999/xlink" 
	 viewBox="0 0 511.998 511.998" xml:space="preserve">
<g>
	<g>
		<path d="M416.85,312.867c28.195-2.234,49.378-10.779,64.41-25.987c26.517-26.829,31.396-70.581,30.672-132.478l-0.204-17.447
			H320.235c-3.036-17.828-12.651-28.574-20.011-36.789c-7.466-8.331-11.971-13.36-11.971-24.997s4.505-16.666,11.971-24.997
			l-26.296-23.561c-8.854,9.882-20.981,23.417-20.981,48.557s12.128,38.674,20.981,48.557c4.37,4.876,7.714,8.628,9.746,13.228
			h-41.111c-3.036-17.828-12.651-28.574-20.011-36.789c-7.466-8.331-11.971-13.36-11.971-24.996
			c0-11.637,4.505-16.666,11.971-24.997c8.854-9.882,20.981-23.417,20.981-48.557h-35.306c0,11.637-4.505,16.666-11.971,24.997
			c-8.854,9.882-20.981,23.417-20.981,48.557s12.128,38.674,20.981,48.557c4.37,4.876,7.714,8.628,9.746,13.228H5.884v75.119
			c0,46.706,14.52,91.357,41.99,129.13l54.566,75.03H0v47.074c0,25.957,21.118,47.074,47.074,47.074h353.058
			c25.957,0,47.074-21.118,47.074-47.074v-47.074H344.763l54.567-75.03C405.927,332.134,411.769,322.663,416.85,312.867z
			 M441.321,212.074v-39.813h35.344c-0.397,42.472-4.775,73.874-20.516,89.8c-5.897,5.967-13.753,10.189-23.937,12.817
			C438.229,254.694,441.321,233.603,441.321,212.074z M185.404,323.362l-24.965,24.965l-54.849-54.849l54.849-54.849l24.965,24.965
			l-29.885,29.885L185.404,323.362z M225.895,373.504h-36.078l33.695-160.053h36.079L225.895,373.504z M288.967,348.325
			l-24.965-24.962l29.885-29.885l-29.885-29.885l24.965-24.965l54.849,54.849L288.967,348.325z"/>
	</g>
</g>
</svg>